<svg xmlns="http://www.w3.org/2000/svg" viewBox="0 0 591 591"><defs><style>.cls-1{fill:#fff;}.cls-2{fill:#313131;}.cls-3{fill:#8d8d8d;}.cls-4{fill:#0c0c0c;}.cls-5{fill:#363636;}.cls-6{fill:#373737;}</style></defs><g id="Template_hand.jpg" data-name="Template hand.jpg"><path class="cls-1" d="M351,737V146H942V737ZM523.9,488.69l-1.2,1c-2.13-2.56-4.38-5-6.38-7.7-12.65-16.78-25-33.85-40.08-48.57-7.56-7.37-10.69-16-9.72-26.31,2.35-24.95,5-49.88,7.14-74.85a178.14,178.14,0,0,0,.41-25c-.31-5.7-4.53-9.4-9.56-11.73-3.42-1.58-6-.38-7.3,3.2a71.42,71.42,0,0,0-2.72,8.79q-7.9,35.06-15.65,70.14c-2.08,9.5-4.28,19.14-2.52,28.85,3.31,18.24,7.38,36.35,10.77,54.58,2.92,15.69,9.83,29,22,39.44,3.62,3.13,7,6.51,10.73,9.57,23.63,19.6,45.73,40.67,63.63,65.82,3.15,4.43,5.35,9,5.58,14.54.17,3.92.91,7.82,1,11.74.2,6.45,3.89,10.08,9.6,11.48a113.48,113.48,0,0,0,18.81,3.23,131,131,0,0,0,42.42-3.59c5.61-1.44,6.07-2.09,6.32-7.74a116.3,116.3,0,0,0-5.33-40.76c-6.9-21.5-14.78-42.69-22.45-63.94a42.82,42.82,0,0,0-5.22-9.29c-8.33-12.19-19.14-21.4-33-26.74a59.22,59.22,0,0,1-27.62-21.25,146.86,146.86,0,0,0-12.28-15.65c-6.46-6.85-13.09-13.69-20.49-19.46-6.65-5.19-14.68-8-23.52-6.26-6.95,1.39-9.92,5.34-8.22,12.16a37.83,37.83,0,0,0,5.45,12.27c3,4.28,7.37,7.57,10.66,11.67,12.29,15.34,24.39,30.82,36.52,46.28A27.87,27.87,0,0,1,523.9,488.69Zm245.59.93-1.11-.8a24.48,24.48,0,0,1,1.88-3.68c13-17.58,25.36-35.67,41.11-51.05,4.66-4.55,9.06-9.37,11.12-15.82,3.38-10.62-.43-16.15-11.57-16.62a17,17,0,0,0-2.93.22,39,39,0,0,0-22.5,11A214.06,214.06,0,0,0,764,437.05c-9.72,13.18-21.15,23.3-36.58,29.68-18.64,7.71-30.71,22.4-37.5,41.39-1.82,5.09-3.83,10.11-5.64,15.2-4,11.1-8.22,22.12-11.7,33.38-4.85,15.67-8,31.69-7.5,48.23.21,6.45.76,7.06,7.15,8.63a130.74,130.74,0,0,0,41,3.39c7.26-.55,14.5-2.31,21.57-4.18,4.46-1.17,7.08-4.64,7.29-9.58.12-2.82.56-5.62.79-8.44.5-6,.93-12,4.74-17.14,14.26-19.36,29.95-37.38,48.22-53.12,10.52-9,20.94-18.25,31.06-27.75,8.12-7.61,13.92-16.73,16.23-27.91,3.47-16.72,7.26-33.37,10.91-50.05,2.58-11.77,3.2-23.57.61-35.46-3.15-14.4-6-28.88-9.22-43.25-3.06-13.41-6.4-26.76-9.91-40.06-1.47-5.54-4.91-6.52-9.8-3.45-5.71,3.61-8.49,8.89-8.13,15.53.64,11.9,1.4,23.8,2.46,35.66,1.77,19.95,3.9,39.86,5.73,59.81.91,9.85-2,18.42-9.32,25.34a93.33,93.33,0,0,0-8.91,9.32c-10.78,13.4-21.38,26.95-32.08,40.42C773.55,485,771.48,487.3,769.49,489.62Zm-283.92-91.8c.21-4.62.48-9.85.68-15.09.65-16.8,1.59-33.6,1.71-50.41,0-4.8-2-9.73-3.78-14.36-.62-1.65-3.18-2.58-4.85-3.84-.66,1.87-1.74,3.69-1.91,5.6-1.76,19.31-3.33,38.64-5.05,57.95-.7,7.93-1.62,15.83-2.4,23.37Zm336.73,3c-.08-.76-.22-2-.33-3.16-2.34-25.55-4.63-51.1-7.07-76.64-.23-2.36-1.37-4.64-2.09-6.95-1.95,1.84-5,3.37-5.65,5.59-1.62,5.69-3,11.7-3,17.57.14,15,1.12,29.93,1.76,44.89.2,4.54.24,9.09.65,13.61a3.84,3.84,0,0,0,2.2,2.8C813.15,399.5,817.58,400.07,822.3,400.83ZM792.85,404c3.45-1.41,6.75-2.62,9.9-4.15.65-.31,1.06-1.82,1-2.76q-1-24.8-2.24-49.6c0-1.18-.92-2.32-1.41-3.47-1.15.61-2.92.94-3.34,1.87-1.47,3.3-3.37,6.77-3.5,10.24-.59,15.43-.61,30.88-.82,46.33A6.9,6.9,0,0,0,792.85,404Zm-301.39-60.2a21.22,21.22,0,0,0-.75,3.38q-1.17,25-2.22,50c0,.93.4,2.42,1.06,2.74,3.15,1.52,6.44,2.72,9.95,4.15a19.29,19.29,0,0,0,.32-2.38c0-12.26.15-24.53-.15-36.78A92.66,92.66,0,0,0,497.74,350,7.2,7.2,0,0,0,491.46,343.81Z" transform="translate(-351 -146)"/><path d="M523.9,488.69a27.87,27.87,0,0,0-2.25-4.09c-12.13-15.46-24.23-30.94-36.52-46.28-3.29-4.1-7.66-7.39-10.66-11.67A37.83,37.83,0,0,1,469,414.38c-1.7-6.82,1.27-10.77,8.22-12.16,8.84-1.76,16.87,1.07,23.52,6.26,7.4,5.77,14,12.61,20.49,19.46a146.86,146.86,0,0,1,12.28,15.65,59.22,59.22,0,0,0,27.62,21.25c13.87,5.34,24.68,14.55,33,26.74a42.82,42.82,0,0,1,5.22,9.29c7.67,21.25,15.55,42.44,22.45,63.94a116.3,116.3,0,0,1,5.33,40.76c-.25,5.65-.71,6.3-6.32,7.74a131,131,0,0,1-42.42,3.59,113.48,113.48,0,0,1-18.81-3.23c-5.71-1.4-9.4-5-9.6-11.48-.11-3.92-.85-7.82-1-11.74-.23-5.52-2.43-10.11-5.58-14.54-17.9-25.15-40-46.22-63.63-65.82-3.69-3.06-7.11-6.44-10.73-9.57-12.13-10.48-19-23.75-22-39.44-3.39-18.23-7.46-36.34-10.77-54.58-1.76-9.71.44-19.35,2.52-28.85q7.7-35.1,15.65-70.14a71.42,71.42,0,0,1,2.72-8.79c1.33-3.58,3.88-4.78,7.3-3.2,5,2.33,9.25,6,9.56,11.73a178.14,178.14,0,0,1-.41,25c-2.17,25-4.79,49.9-7.14,74.85-1,10.27,2.16,18.94,9.72,26.31,15.1,14.72,27.43,31.79,40.08,48.57,2,2.66,4.25,5.14,6.38,7.7Z" transform="translate(-351 -146)"/><path d="M769.49,489.62c2-2.32,4.06-4.59,6-7,10.7-13.47,21.3-27,32.08-40.42a93.33,93.33,0,0,1,8.91-9.32c7.37-6.92,10.23-15.49,9.32-25.34-1.83-19.95-4-39.86-5.73-59.81-1.06-11.86-1.82-23.76-2.46-35.66-.36-6.64,2.42-11.92,8.13-15.53,4.89-3.07,8.33-2.09,9.8,3.45,3.51,13.3,6.85,26.65,9.91,40.06,3.27,14.37,6.07,28.85,9.22,43.25,2.59,11.89,2,23.69-.61,35.46-3.65,16.68-7.44,33.33-10.91,50.05-2.31,11.18-8.11,20.3-16.23,27.91-10.12,9.5-20.54,18.7-31.06,27.75-18.27,15.74-34,33.76-48.22,53.12-3.81,5.17-4.24,11.13-4.74,17.14-.23,2.82-.67,5.62-.79,8.44-.21,4.94-2.83,8.41-7.29,9.58-7.07,1.87-14.31,3.63-21.57,4.18a130.74,130.74,0,0,1-41-3.39c-6.39-1.57-6.94-2.18-7.15-8.63-.53-16.54,2.65-32.56,7.5-48.23,3.48-11.26,7.73-22.28,11.7-33.38,1.81-5.09,3.82-10.11,5.64-15.2,6.79-19,18.86-33.68,37.5-41.39,15.43-6.38,26.86-16.5,36.58-29.68a214.06,214.06,0,0,1,21.5-24.17,39,39,0,0,1,22.5-11,17,17,0,0,1,2.93-.22c11.14.47,15,6,11.57,16.62-2.06,6.45-6.46,11.27-11.12,15.82-15.75,15.38-28.12,33.47-41.11,51.05a24.48,24.48,0,0,0-1.88,3.68Z" transform="translate(-351 -146)"/><path d="M485.57,397.82,470,401c.78-7.54,1.7-15.44,2.4-23.37,1.72-19.31,3.29-38.64,5.05-57.95.17-1.91,1.25-3.73,1.91-5.6,1.67,1.26,4.23,2.19,4.85,3.84,1.75,4.63,3.81,9.56,3.78,14.36-.12,16.81-1.06,33.61-1.71,50.41C486.05,388,485.78,393.2,485.57,397.82Z" transform="translate(-351 -146)"/><path d="M822.3,400.83c-4.72-.76-9.15-1.33-13.49-2.29a3.84,3.84,0,0,1-2.2-2.8c-.41-4.52-.45-9.07-.65-13.61-.64-15-1.62-29.92-1.76-44.89-.06-5.87,1.34-11.88,3-17.57.64-2.22,3.7-3.75,5.65-5.59.72,2.31,1.86,4.59,2.09,6.95,2.44,25.54,4.73,51.09,7.07,76.64C822.08,398.87,822.22,400.07,822.3,400.83Z" transform="translate(-351 -146)"/><path d="M792.85,404a6.9,6.9,0,0,1-.39-1.54c.21-15.45.23-30.9.82-46.33.13-3.47,2-6.94,3.5-10.24.42-.93,2.19-1.26,3.34-1.87.49,1.15,1.36,2.29,1.41,3.47q1.25,24.79,2.24,49.6c0,.94-.37,2.45-1,2.76C799.6,401.39,796.3,402.6,792.85,404Z" transform="translate(-351 -146)"/><path d="M491.46,343.81a7.2,7.2,0,0,1,6.28,6.18,92.66,92.66,0,0,1,1.93,14.89c.3,12.25.15,24.52.15,36.78a19.29,19.29,0,0,1-.32,2.38c-3.51-1.43-6.8-2.63-9.95-4.15-.66-.32-1.1-1.81-1.06-2.74q1-25,2.22-50A21.22,21.22,0,0,1,491.46,343.81Z" transform="translate(-351 -146)"/></g><g id="Layer_2" data-name="Layer 2"><path class="cls-2" d="M647,196.48c.66.08.72.71,1,1.12q9.56,15.78,19.06,31.58,20.06,33.25,40.1,66.53,13.83,22.94,27.67,45.88l5,8.33c.29.5.55,1,.82,1.53a49.77,49.77,0,0,1-5.86-2.53c-4.82-2.15-9.6-4.38-14.4-6.56l-17.47-7.9c-4.84-2.2-9.68-4.44-14.53-6.64l-20.63-9.34c-5.91-2.69-11.8-5.41-17.71-8.07a7.52,7.52,0,0,0-3-1.07l0-.31c0-.73,0-1.46,0-2.18V199.39C647,198.42,647,197.45,647,196.48Z" transform="translate(-351 -146)"/><path class="cls-3" d="M647,196.48c0,1,0,1.94,0,2.91V306.85c0,.72,0,1.45,0,2.18q-11.22,5.13-22.44,10.27-13.47,6.13-27,12.23-17.64,8-35.28,16c-3,1.33-5.84,2.8-8.88,3.94,1.91-3.54,4.09-6.92,6.16-10.37q13.92-23.16,27.89-46.3,19.82-32.85,39.61-65.71,9.46-15.68,18.92-31.35A3.61,3.61,0,0,1,647,196.48Z" transform="translate(-351 -146)"/><path class="cls-4" d="M647,309.34a7.52,7.52,0,0,1,3,1.07c5.91,2.66,11.8,5.38,17.71,8.07l20.63,9.34c4.85,2.2,9.69,4.44,14.53,6.64l17.47,7.9c4.8,2.18,9.58,4.41,14.4,6.56a49.77,49.77,0,0,0,5.86,2.53c.16.72-.51.72-.86.93-3.73,2.23-7.49,4.44-11.23,6.66l-48.73,28.8-31.62,18.67c-.36.22-.68.57-1.17.47,0-.78,0-1.55,0-2.33V312C647,311.08,647,310.21,647,309.34Z" transform="translate(-351 -146)"/><path class="cls-5" d="M647,309.34c0,.87,0,1.74,0,2.62v92.69c0,.78,0,1.55,0,2.33a3,3,0,0,1-1.43-.67q-28.8-17-57.59-34-16.86-10-33.72-19.95c-.33-.19-.92-.2-.81-.84,3-1.14,5.93-2.61,8.88-3.94q17.65-8,35.28-16,13.49-6.12,27-12.23Q635.82,314.18,647,309Z" transform="translate(-351 -146)"/><path class="cls-6" d="M647.33,424.75l93-54.89a2.36,2.36,0,0,1-.61,1.36q-14.38,20.26-28.78,40.51-18.51,26.07-37,52.13l-26.08,36.72c-.22.31-.38.69-.79.82q0-9.58,0-19.18,0-27.59,0-55.19A4.44,4.44,0,0,1,647.33,424.75Z" transform="translate(-351 -146)"/><path class="cls-3" d="M647.33,424.75A4.44,4.44,0,0,0,647,427q0,27.6,0,55.19,0,9.6,0,19.18c-.5-.2-.69-.67-1-1.06l-41.56-58.53q-16-22.53-32-45l-18.08-25.48a3.62,3.62,0,0,1-.79-1.36,3.19,3.19,0,0,1,1.3.6l26.41,15.6,52.68,31.11L645.48,424A3.64,3.64,0,0,0,647.33,424.75Z" transform="translate(-351 -146)"/></g></svg>